<svg xmlns="http://www.w3.org/2000/svg" xmlns:xlink="http://www.w3.org/1999/xlink" width="1680" height="600" viewBox="0 0 1680 600"><defs><style>.a{fill:#4f6ef7;opacity:0.2;}.b{opacity:0.75;}.c{fill:#98aafa;}.d{fill:url(#a);}</style><linearGradient id="a" x1="0.5" y1="0.014" x2="0.5" y2="1" gradientUnits="objectBoundingBox"><stop offset="0" stop-color="#081125"/><stop offset="0.086" stop-color="#081125" stop-opacity="0.984"/><stop offset="1" stop-color="#081125" stop-opacity="0"/></linearGradient></defs><g transform="translate(3 -3468)"><rect class="a" width="1680" height="600" transform="translate(-3 3468)"/><g class="b" transform="translate(-50.44 2713.163)"><g transform="translate(47.45 755.242)"><rect class="c" width="1679.655" height="2" transform="translate(0 597.595)"/><rect class="c" width="1679.655" height="2" transform="translate(0 455.225)"/><rect class="c" width="1679.655" height="2" transform="translate(0 355.206)"/><rect class="c" width="1679.655" height="2" transform="translate(0 282.186)"/><rect class="c" width="1679.655" height="2" transform="translate(0 222.991)"/><rect class="c" width="1679.655" height="2" transform="translate(0 176.797)"/><rect class="c" width="1679.655" height="2" transform="translate(0 138.599)"/><rect class="c" width="1679.655" height="2" transform="translate(0 105.708)"/><rect class="c" width="1679.655" height="2" transform="translate(0 80.164)"/><rect class="c" width="1679.655" height="2" transform="translate(0 55.501)"/><rect class="c" width="1679.655" height="2" transform="translate(0 22.028)"/><rect class="c" width="1679.655" height="2" transform="translate(0 36.123)"/><rect class="c" width="1679.655" height="2" transform="translate(0 10.618)"/><rect class="c" width="1679.655" height="2"/></g><g transform="translate(926.88 755.242)"><path class="c" d="M0,0,841.17,3.483l.008,2.008L.008,2.008Z" transform="matrix(0.707, 0.707, -0.707, 0.707, 205.527, 0.372)"/><path class="c" d="M0,0,695.061,2.535l.007,2L.007,2Z" transform="translate(104.206 0.648) rotate(59.07)"/><path class="c" d="M0,0,610.822,1.033l0,2L0,2Z" transform="matrix(0.209, 0.978, -0.978, 0.209, 2.967, 1.177)"/><rect class="c" width="601" height="2" transform="matrix(0.808, 0.59, -0.59, 0.808, 315.192, 0.209)"/><rect class="c" width="452" height="2" transform="matrix(0.87, 0.493, -0.493, 0.87, 407.082, 0.121)"/><rect class="c" width="330" height="2" transform="matrix(0.907, 0.421, -0.421, 0.907, 501.152, 0.098)"/><rect class="c" width="206.194" height="2" transform="translate(607.228 0.126) rotate(22.886)"/><rect class="c" width="129.787" height="2" transform="matrix(0.96, 0.278, -0.278, 0.96, 672.305, 0)"/></g><g transform="translate(47.44 754.837)"><path class="c" d="M0,0,2.009.009l3.746,841.43-2.009-.009Z" transform="translate(595.144 0.657) rotate(45)"/><path class="c" d="M0,0,2,.008,4.731,695.387l-2-.008Z" transform="translate(696.348 0.852) rotate(30.951)"/><path class="c" d="M0,0,2,0,3.113,611.189l-2,0Z" transform="translate(797.677 1.226) rotate(12.093)"/><rect class="c" width="2" height="601" transform="translate(485.368 0.405) rotate(53.859)"/><path class="c" d="M0,0,2.033.019,6.291,446.1l-2.033-.019Z" transform="translate(393.419 0) rotate(60.456)"/><rect class="c" width="2" height="328.39" transform="translate(299.432 1.03) rotate(65.108)"/><rect class="c" width="2" height="206.194" transform="translate(193.328 0.988) rotate(67.127)"/><rect class="c" width="2" height="129.787" transform="translate(128.163 0.852) rotate(73.841)"/></g></g><rect class="d" width="1680" height="600" transform="translate(-3 3468)"/></g></svg>